<?xml version="1.0" encoding="UTF-8" standalone="no"?>
<svg width="87px" height="100px" viewBox="0 0 87 100" version="1.1" xmlns="http://www.w3.org/2000/svg" xmlns:xlink="http://www.w3.org/1999/xlink">
    <!-- Generator: Sketch 41 (35326) - http://www.bohemiancoding.com/sketch -->
    <title>Page 1</title>
    <desc>Created with Sketch.</desc>
    <defs></defs>
    <g id="Brand-Guidelines" stroke="none" stroke-width="1" fill="none" fill-rule="evenodd">
        <g id="Desktop-HD-Copy" transform="translate(-121.000000, -706.000000)" fill="#EB5210">
            <g id="Group" transform="translate(57.000000, 265.000000)">
                <g id="symbol" transform="translate(0.000000, 365.000000)">
                    <path d="M134.454787,135.462136 L108.63636,150.368532 C108.121534,150.665575 107.486748,150.665575 106.972636,150.368532 L81.1534948,135.462136 C80.6386686,135.165093 80.3216327,134.615993 80.3216327,134.021193 L80.3216327,104.208401 C80.3216327,103.614316 80.6386686,103.064501 81.1534948,102.767459 L106.972636,87.8610622 C107.486748,87.5640196 108.121534,87.5640196 108.63636,87.8610622 L134.454787,102.767459 C134.969613,103.064501 135.286649,103.614316 135.286649,104.208401 L135.286649,134.021193 C135.286649,134.615993 134.969613,135.165093 134.454787,135.462136 M150.75,118.999836 C150.75,94.6930415 130.581808,75.0960858 106.065799,76.0321983 C83.8504415,76.8797693 65.5073481,95.3292553 64.7740242,117.548897 C64.242775,133.624899 72.5678217,147.760127 85.2135527,155.571061 L85.1914173,155.608906 L119.796878,175.472914 L135.240236,166.573062 L122.814431,159.396199 C139.190331,153.321107 150.75,137.761359 150.75,118.999836" id="Page-1"></path>
                </g>
            </g>
        </g>
    </g>
</svg>